<svg id="Filled" height="512" viewBox="0 0 512 512" width="512" xmlns="http://www.w3.org/2000/svg"><path d="m88 360h400v64h-400z" fill="#93573d"/><path d="m88 296h400v64h-400z" fill="#ab6647"/><path d="m256 360h80l-8 32h-64z" fill="#794832"/><path d="m256 296h80l-8 32h-64z" fill="#93573d"/><path d="m48 88h304v160h-304z" fill="#3ba673"/><path d="m304 200v16h-208v-16h-16v-64h16v-16h224v80z" fill="#44c086"/><circle cx="200" cy="168" fill="#3ba673" r="16"/><path d="m392 108.773a35.226 35.226 0 0 1 -35.226 35.227h-19.667a3.226 3.226 0 0 0 -1.981.68l-49.926 38.832a27.227 27.227 0 0 1 -37.976-4.483 27.228 27.228 0 0 1 2.008-36.26l49.261-49.261a3.226 3.226 0 0 0 -2.282-5.508h-144.211l80.114-43.7a35.232 35.232 0 0 1 16.869-4.3h203.791a3.227 3.227 0 0 1 3.226 3.226v57.548a3.227 3.227 0 0 1 -3.226 3.226h-56a4.773 4.773 0 0 0 -4.774 4.773z" fill="#f5cbaa"/><path d="m424 24h64v104h-64z" fill="#155384"/><path d="m120 403.227a35.226 35.226 0 0 1 35.226-35.227h19.667a3.226 3.226 0 0 0 1.981-.68l49.926-38.832a27.227 27.227 0 0 1 37.976 4.483 27.228 27.228 0 0 1 -2.008 36.26l-49.261 49.261a3.226 3.226 0 0 0 2.282 5.508h144.211l-80.114 43.7a35.232 35.232 0 0 1 -16.869 4.3h-203.791a3.227 3.227 0 0 1 -3.226-3.226v-57.548a3.227 3.227 0 0 1 3.226-3.226h56a4.773 4.773 0 0 0 4.774-4.773z" fill="#f5cbaa"/><path d="m24 384h64v104h-64z" fill="#e74444" transform="matrix(-1 0 0 -1 112 872)"/><path d="m488 288h-400a8 8 0 0 0 -8 8v80h-56a8 8 0 0 0 -8 8v104a8 8 0 0 0 8 8h64a8 8 0 0 0 8-8v-8h167.018a43.337 43.337 0 0 0 20.7-5.278l78.322-42.722h125.96a8 8 0 0 0 8-8v-128a8 8 0 0 0 -8-8zm-408 192h-48v-88h48zm245.754-176-4 16h-51.508l-4-16zm-51.968 64h51.968l-4 16h-51.508l-2.186-8.746.365-.365a35.313 35.313 0 0 0 5.361-6.889zm-177.786-64h153.754l3.011 12.044a35.255 35.255 0 0 0 -30.875 6.13l-38.349 29.826h-87.541zm0 64h34.207a43.232 43.232 0 0 0 -18.088 32h-16.119zm180.054 92.676a27.294 27.294 0 0 1 -13.036 3.324h-167.018v-48h19.227a12.788 12.788 0 0 0 12.773-12.773 27.258 27.258 0 0 1 27.227-27.227h19.666a11.287 11.287 0 0 0 6.893-2.365l49.927-38.835a19.226 19.226 0 0 1 25.4 28.771l-49.261 49.261a11.227 11.227 0 0 0 7.938 19.168h112.836zm203.946-44.676h-252.686l27.552-27.552 1.373 5.492a8 8 0 0 0 7.761 6.06h64a8 8 0 0 0 7.761-6.06l6.485-25.94h137.754zm0-64h-201.3a35.153 35.153 0 0 0 -2.843-16h52.143a8 8 0 0 0 7.761-6.06l6.485-25.94h137.754z"/><path d="m200 144a24 24 0 1 0 24 24 24.027 24.027 0 0 0 -24-24zm0 32a8 8 0 1 1 8-8 8.009 8.009 0 0 1 -8 8z"/><path d="m488 16h-64a8 8 0 0 0 -8 8v8h-167.018a43.337 43.337 0 0 0 -20.7 5.278l-78.322 42.722h-101.96a8 8 0 0 0 -8 8v160a8 8 0 0 0 8 8h304a8 8 0 0 0 8-8v-96.132a43.287 43.287 0 0 0 39.881-39.868h16.119v16a8 8 0 0 0 8 8h64a8 8 0 0 0 8-8v-104a8 8 0 0 0 -8-8zm-144 224h-288v-144h228.686l-16 16h-172.686a8 8 0 0 0 -8 8v8h-8a8 8 0 0 0 -8 8v64a8 8 0 0 0 8 8h8v8a8 8 0 0 0 8 8h208a8 8 0 0 0 8-8v-8h8a8 8 0 0 0 8-8v-39.643l10.745-8.357h5.255zm-103.024-55.973a35.361 35.361 0 0 0 49.134 5.8l21.89-17.027v19.2h-8a8 8 0 0 0 -8 8v8h-192v-8a8 8 0 0 0 -8-8h-8v-48h8a8 8 0 0 0 8-8v-8h148.686l-9.111 9.111a35.192 35.192 0 0 0 -2.599 46.916zm175.024-88.027h-19.227a12.788 12.788 0 0 0 -12.773 12.773 27.258 27.258 0 0 1 -27.227 27.227h-19.666a11.287 11.287 0 0 0 -6.893 2.365l-49.927 38.835a19.226 19.226 0 0 1 -25.4-28.771l49.261-49.261a11.227 11.227 0 0 0 -7.938-19.168h-112.836l52.572-28.676a27.294 27.294 0 0 1 13.036-3.324h167.018zm64 24h-48v-88h48z"/></svg>