<svg height="512" viewBox="0 0 512 512" width="512" xmlns="http://www.w3.org/2000/svg"><g><g><g><path d="m288 296v180a19.994 19.994 0 0 1 -20 20h-232a19.994 19.994 0 0 1 -20-20v-440a19.994 19.994 0 0 1 20-20h232a19.994 19.994 0 0 1 20 20v68" fill="#78b9eb"/><path d="m192 40h-80l-8-24h96z" fill="#3e3d42"/></g><path d="m352 104v176l-31.45 15.33-1.36.67h-167.19v-192z" fill="#4e901e"/><path d="m152 272h136a40 40 0 0 1 40-40v-64a40 40 0 0 1 -40-40h-136" fill="#91cc04"/><path d="m464 216h32v112h-32z" fill="#d8d7da"/><path d="m464 232v88h-124a20.011 20.011 0 0 1 -19.45-24.67l31.45-15.33v-88h40a39.985 39.985 0 0 1 40 40z" fill="#ffdaaa"/><path d="m352 280-31.45 15.33a20.019 20.019 0 0 1 19.45-15.33z" fill="#d8d7da"/><path d="m152 224a40 40 0 1 0 0-48" fill="#ffda44"/></g><g><path d="m120 464a8 8 0 0 0 0 16h64a8 8 0 0 0 0-16z"/><path d="m496 208h-32a8 8 0 0 0 -8 8v8h-16.67a48.08 48.08 0 0 0 -47.33-40h-32v-80a8 8 0 0 0 -8-8h-56v-60a28.031 28.031 0 0 0 -28-28h-232a28.031 28.031 0 0 0 -28 28v440a28.031 28.031 0 0 0 28 28h232a28.031 28.031 0 0 0 28-28v-172h16.29a28.043 28.043 0 0 0 27.71 24h116a8 8 0 0 0 8 8h32a8 8 0 0 0 8-8v-112a8 8 0 0 0 -8-8zm-307.1-184-2.67 8h-68.46l-2.67-8zm91.1 452a12.01 12.01 0 0 1 -12 12h-232a12.01 12.01 0 0 1 -12-12v-440a12.01 12.01 0 0 1 12-12h62.23l6.18 18.53a8 8 0 0 0 7.59 5.47h80a8 8 0 0 0 7.59-5.47l6.18-18.53h62.23a12.01 12.01 0 0 1 12 12v60h-120v-8a8 8 0 0 0 -16 0v224a8 8 0 0 0 16 0v-8h120zm-96-228a48 48 0 1 0 -24-89.61v-22.39h120.67a48.116 48.116 0 0 0 39.33 39.33v49.34a48.116 48.116 0 0 0 -39.33 39.33h-120.67v-22.39a47.752 47.752 0 0 0 24 6.39zm-24-26.85v-42.3a31.714 31.714 0 0 1 24-10.85 32 32 0 0 1 0 64 31.714 31.714 0 0 1 -24-10.85zm154.71 66.85h-154.71v-8h128a8 8 0 0 0 8-8 32.036 32.036 0 0 1 32-32 8 8 0 0 0 8-8v-64a8 8 0 0 0 -8-8 32.03 32.03 0 0 1 -32-32 8 8 0 0 0 -8-8h-128v-8h184v160h-4a28.026 28.026 0 0 0 -25.29 16zm141.29 24h-116a12 12 0 0 1 0-24h36a8 8 0 0 0 0-16h-16v-72h32a32.036 32.036 0 0 1 32 32 8 8 0 0 0 8 8h24zm32 8h-16v-96h16z"/></g></g></svg>