<svg id="Capa_1" enable-background="new 0 0 512 512" height="512" viewBox="0 0 512 512" width="512" xmlns="http://www.w3.org/2000/svg"><path d="m463.021 415.4h-456.24c-3.745 0-6.781-3.036-6.781-6.781v-247.321c0-3.745 3.036-6.781 6.781-6.781h456.24c3.745 0 6.781 3.036 6.781 6.781v247.321c.001 3.745-3.035 6.781-6.781 6.781z" fill="#91deb6"/><path d="m469.802 161.302v247.321c0 3.739-3.041 6.779-6.78 6.779h-17.81c3.749 0 6.78-3.04 6.78-6.779v-247.321c0-3.749-3.03-6.79-6.78-6.79h17.81c3.74 0 6.78 3.041 6.78 6.79z" fill="#6ed5a1"/><path d="m428.938 216.946c-6.857 0-12.416-5.559-12.416-12.416v-9.774c0-1.186-.961-2.147-2.147-2.147h-358.946c-1.186 0-2.147.962-2.147 2.147v9.774c0 6.857-5.559 12.416-12.416 12.416-1.186 0-2.147.962-2.147 2.147v131.73c0 1.186.961 2.147 2.147 2.147 6.857 0 12.416 5.559 12.416 12.416v9.774c0 1.186.961 2.147 2.147 2.147h358.946c1.186 0 2.147-.962 2.147-2.147v-9.774c0-6.857 5.559-12.416 12.416-12.416 1.186 0 2.147-.962 2.147-2.147v-131.73c0-1.186-.961-2.147-2.147-2.147z" fill="#00c27a"/><path d="m431.087 219.093v131.729c0 1.191-.966 2.147-2.147 2.147-6.862 0-12.419 5.557-12.419 12.419v9.769c0 1.192-.966 2.147-2.147 2.147h-21.479c1.181 0 2.147-.955 2.147-2.147v-9.769c0-6.862 5.557-12.419 12.409-12.419 1.192 0 2.147-.955 2.147-2.147v-131.729c0-1.181-.955-2.147-2.147-2.147-6.851 0-12.409-5.557-12.409-12.419v-9.769c0-1.192-.966-2.147-2.147-2.147h21.479c1.181 0 2.147.955 2.147 2.147v9.769c0 6.862 5.557 12.419 12.419 12.419 1.181 0 2.147.966 2.147 2.147z" fill="#08b865"/><circle cx="234.901" cy="284.958" fill="#91deb6" r="64.359"/><path d="m242.912 279.896c-1.201-.424-2.429-.87-3.654-1.333v-19.533c3.085.735 4.924 2.295 5.085 2.436 1.671 1.513 4.252 1.399 5.783-.26 1.54-1.669 1.435-4.271-.235-5.811-.235-.216-4.178-3.768-10.633-4.734v-3.996c0-2.271-1.841-4.112-4.112-4.112s-4.112 1.841-4.112 4.112v4.311c-.615.135-1.24.291-1.878.483-5.896 1.776-10.302 6.822-11.498 13.169-1.091 5.787.763 11.367 4.837 14.562 2.162 1.695 4.852 3.248 8.539 4.889v24.759c-3.195-.234-5.407-1.013-9.032-3.384-1.901-1.243-4.45-.711-5.692 1.19-1.243 1.901-.71 4.449 1.19 5.692 5.276 3.451 8.878 4.478 13.534 4.738v4.474c0 2.271 1.841 4.112 4.112 4.112s4.112-1.841 4.112-4.112v-4.8c9.255-1.811 14.661-9.44 15.86-16.567 1.539-9.157-3.252-17.12-12.206-20.285zm-15.342-7.175c-1.649-1.294-2.35-3.81-1.831-6.568.467-2.475 2.103-5.45 5.295-6.646v15.426c-1.304-.707-2.483-1.443-3.464-2.212zm19.438 26.099c-.636 3.786-3.275 7.799-7.75 9.391v-20.888c.303.109.6.216.913.327 7.633 2.698 7.162 9.232 6.837 11.17z" fill="#00c27a"/><path d="m497.115 415.403h-111.789c-8.219 0-14.883-6.663-14.883-14.883v-19.43c0-8.22 6.663-14.883 14.883-14.883h111.789c8.219 0 14.883 6.663 14.883 14.883v19.43c0 8.22-6.663 14.883-14.883 14.883z" fill="#fea613"/><path d="m497.115 366.3h-111.789c-8.219 0-14.883-6.663-14.883-14.883v-19.43c0-8.22 6.663-14.883 14.883-14.883h111.789c8.219 0 14.883 6.663 14.883 14.883v19.43c0 8.22-6.663 14.883-14.883 14.883z" fill="#fec165"/><path d="m512 381.087v19.435c0 8.218-6.667 14.884-14.884 14.884h-20c8.218 0 14.884-6.666 14.884-14.884v-19.435c0-7.684-5.824-13.99-13.292-14.792h-1.592c.359 0 .719-.01 1.068-.041-.349-.031-.709-.041-1.068-.041h20c.36 0 .719.01 1.068.041 7.714.545 13.816 6.975 13.816 14.833z" fill="#fe9901"/><path d="m512 331.986v19.435c0 7.858-6.102 14.288-13.816 14.833-.349.031-.709.041-1.068.041h-20c.359 0 .719-.01 1.068-.041-.349-.031-.709-.041-1.068-.041h1.592c7.468-.801 13.292-7.108 13.292-14.792v-19.435c0-8.218-6.667-14.884-14.884-14.884h20c8.217 0 14.884 6.667 14.884 14.884z" fill="#fdb441"/><path d="m497.115 318.242h-111.789c-8.219 0-14.883-6.663-14.883-14.883v-19.43c0-8.22 6.663-14.883 14.883-14.883h111.789c8.219 0 14.883 6.663 14.883 14.883v19.43c0 8.22-6.663 14.883-14.883 14.883z" fill="#fea613"/><path d="m512 283.926v19.435c0 8.218-6.667 14.884-14.884 14.884h-20c8.218 0 14.884-6.666 14.884-14.884v-19.435c0-7.684-5.824-13.99-13.292-14.792h-1.592c.359 0 .719-.01 1.068-.041-.349-.031-.709-.041-1.068-.041h20c.36 0 .719.01 1.068.041 7.714.545 13.816 6.975 13.816 14.833z" fill="#fe9901"/><circle cx="443.577" cy="164.673" fill="#f3eae6" r="68.079"/><path d="m480.921 150.491-28.543-28.536c-4.985-4.983-13.065-4.983-18.049.001l-27.913 27.913c-4.975 4.975-5.255 13.377-.622 18.672l.001.001c4.633 5.295 12.494 5.556 17.469.582l2.983-2.983c1.908-1.908 5.172-.557 5.172 2.142v30.082c0 7.049 5.715 12.764 12.764 12.764 7.049 0 12.764-5.715 12.764-12.764v-28.435c0-2.699 3.263-4.051 5.172-2.142l.754.754c4.984 4.984 13.066 4.984 18.05 0 4.984-4.985 4.983-13.067-.002-18.051z" fill="#fd4755"/><path d="m484.658 159.519c0 3.263-1.244 6.535-3.733 9.023-4.986 4.986-13.069 4.986-18.055 0l-.757-.757c-1.906-1.906-5.169-.557-5.169 2.149v28.427c0 3.524-1.427 6.717-3.742 9.032-2.306 2.306-5.499 3.733-9.023 3.733-2.436 0-4.707-.679-6.648-1.862 3.48-2.158 5.795-6.021 5.795-10.424v-17.838c0-8.084-.922-16.637 6.526-21.831 1.505-1.035 3.402-1.262 5.134-1.845 2.297-.774 3.733-2.576 4.324-4.672.574-2.019.357-4.316-.609-6.239-2.088-4.124-5.864-7.204-9.075-10.424-3.567-3.559-7.126-7.126-10.694-10.694-1.427-1.427-3.124-2.436-4.934-3.011l.331-.331c4.986-4.986 13.06-4.986 18.046 0l28.54 28.531c2.499 2.498 3.743 5.761 3.743 9.033z" fill="#fb2b3a"/></svg>