<svg height="480pt" viewBox="-16 0 480 480" width="480pt" xmlns="http://www.w3.org/2000/svg"><path d="m8 56h288v360h-288zm0 0" fill="#c2dff6"/><path d="m40 472h224c17.503906-.398438 31.601562-14.496094 32-32v-24h-288v24c.398438 17.503906 14.496094 31.601562 32 32zm0 0" fill="#d1d3d4"/><path d="m264 8h-224c-17.503906.398438-31.601562 14.496094-32 32v16h104l8 16h64l8-16h104v-16c-.398438-17.503906-14.496094-31.601562-32-32zm0 0" fill="#d1d3d4"/><path d="m202.910156 173.085938c28.117188 28.117187 28.117188 73.707031 0 101.824218-28.117187 28.117188-73.707031 28.117188-101.824218 0-28.117188-28.117187-28.117188-73.707031 0-101.824218 28.117187-28.117188 73.707031-28.117188 101.824218 0zm0 0" fill="#ffe26e"/><path d="m264 248h96v40l80-64-80-64v40h-96zm0 0" fill="#d80027"/><g fill="#231f20"><path d="m152 144c-44.183594-.160156-80.128906 35.527344-80.289062 79.710938-.15625 44.183593 35.53125 80.128906 79.714843 80.289062h.574219c44.183594.160156 80.128906-35.527344 80.289062-79.710938.15625-44.183593-35.53125-80.128906-79.714843-80.289062zm64 80.480469c-.085938 16.984375-6.957031 33.230469-19.089844 45.121093-12.171875 11.785157-28.445312 18.382813-45.390625 18.398438-35.347656-.132812-63.890625-28.894531-63.757812-64.238281.128906-35.347657 28.890625-63.894531 64.238281-63.761719h.496094c35.339844.273438 63.769531 29.140625 63.503906 64.480469zm0 0"/><path d="m288 408h-272v-344h91.054688l5.785156 11.574219c1.355468 2.714843 4.128906 4.425781 7.160156 4.425781h64c3.03125 0 5.804688-1.710938 7.160156-4.425781l5.785156-11.574219h91.054688v104h16v-128c-.289062-21.972656-18.027344-39.710938-40-40h-224c-21.972656.289062-39.710938 18.027344-40 40v400c.289062 21.972656 18.027344 39.710938 40 40h224c21.972656-.289062 39.710938-18.027344 40-40v-160h-16zm-248-392h224c13.113281.332031 23.667969 10.886719 24 24v8h-96c-3.03125 0-5.804688 1.710938-7.160156 4.425781l-5.785156 11.574219h-54.109376l-5.746093-11.574219c-1.359375-2.726562-4.152344-4.441406-7.199219-4.425781h-96v-8c.332031-13.113281 10.886719-23.667969 24-24zm224 448h-224c-13.113281-.332031-23.667969-10.886719-24-24v-16h272v16c-.332031 13.113281-10.886719 23.667969-24 24zm0 0"/><path d="m48 24h16v16h-16zm0 0"/><path d="m24 368v24c0 4.417969 3.582031 8 8 8h24v-16h-16v-16zm0 0"/><path d="m56 72h-24c-4.417969 0-8 3.582031-8 8v24h16v-16h16zm0 0"/><path d="m248 400h24c4.417969 0 8-3.582031 8-8v-24h-16v16h-16zm0 0"/><path d="m280 104v-24c0-4.417969-3.582031-8-8-8h-24v16h16v16zm0 0"/><path d="m96 216h16v16h-16zm0 0"/><path d="m192 216h16v16h-16zm0 0"/><path d="m144 176v8c-13.253906 0-24 10.746094-24 24s10.746094 24 24 24v16c-4.417969 0-8-3.582031-8-8h-16c0 13.253906 10.746094 24 24 24v8h16v-8c13.253906 0 24-10.746094 24-24s-10.746094-24-24-24v-16c4.417969 0 8 3.582031 8 8h16c0-13.253906-10.746094-24-24-24v-8zm24 64c0 4.417969-3.582031 8-8 8v-16c4.417969 0 8 3.582031 8 8zm-24-24c-4.417969 0-8-3.582031-8-8s3.582031-8 8-8zm0 0"/><path d="m445 217.753906-80-64c-2.402344-1.925781-5.691406-2.300781-8.464844-.96875-2.773437 1.335938-4.535156 4.136719-4.535156 7.214844v32h-88c-4.417969 0-8 3.582031-8 8v48c0 4.417969 3.582031 8 8 8h88v32c0 3.078125 1.761719 5.878906 4.535156 7.214844 2.773438 1.332031 6.0625.957031 8.464844-.96875l80-64c1.898438-1.515625 3.003906-3.816406 3.003906-6.246094s-1.105468-4.730469-3.003906-6.246094zm-77 53.597656v-23.351562c0-4.417969-3.582031-8-8-8h-88v-32h88c4.417969 0 8-3.582031 8-8v-23.351562l59.199219 47.351562zm0 0"/></g></svg>